<svg width="22" height="26" viewBox="0 0 22 26" fill="none" xmlns="http://www.w3.org/2000/svg">
<path d="M16.8824 1V3.4M11 1V3.4M5.11765 1V3.4M1 14.2V9.4C1 6.0064 1 4.3084 2.03412 3.2548C3.06706 2.2 4.73176 2.2 8.05882 2.2H13.9412C17.2682 2.2 18.9329 2.2 19.9659 3.2548C21 4.3084 21 6.0064 21 9.4V14.2C21 17.5936 21 19.2916 19.9659 20.3452C18.9329 21.4 17.2682 21.4 13.9412 21.4H8.05882C4.73176 21.4 3.06706 21.4 2.03412 20.3452C1 19.2916 1 17.5936 1 14.2Z" stroke="#FDC700" stroke-width="1.5" stroke-linecap="round" stroke-linejoin="round"/>
<path d="M6.29412 16.6H11M6.29412 10.6H15.7059M1 17.8V9.39995C1 6.00635 1 4.30835 2.03412 3.25475C3.06706 2.19995 4.73176 2.19995 8.05882 2.19995H13.9412C17.2682 2.19995 18.9329 2.19995 19.9659 3.25475C21 4.30835 21 6.00635 21 9.39995V17.8C21 21.1936 21 22.8916 19.9659 23.9452C18.9329 25 17.2682 24.9999 13.9412 24.9999H8.05882C4.73176 24.9999 3.06706 25 2.03412 23.9452C1 22.8916 1 21.1936 1 17.8Z" stroke="#FDC700" stroke-width="1.5" stroke-linecap="round" stroke-linejoin="round"/>
</svg>
