<svg width="24" height="24" viewBox="0 0 24 24" fill="none" xmlns="http://www.w3.org/2000/svg">
<path d="M0 13.3333V2.66667C0 1.93333 0.261333 1.30578 0.784 0.784C1.30667 0.262222 1.93422 0.000888889 2.66667 0H10.6667V13.3333H0ZM13.3333 0H21.3333C22.0667 0 22.6947 0.261333 23.2173 0.784C23.74 1.30667 24.0009 1.93422 24 2.66667V8H13.3333V0ZM13.3333 24V10.6667H24V21.3333C24 22.0667 23.7391 22.6947 23.2173 23.2173C22.6956 23.74 22.0676 24.0009 21.3333 24H13.3333ZM0 16H10.6667V24H2.66667C1.93333 24 1.30578 23.7391 0.784 23.2173C0.262222 22.6956 0.000888889 22.0676 0 21.3333V16ZM2.66667 10.6667H8V2.66667H2.66667V10.6667ZM16 5.33333H21.3333V2.66667H16V5.33333ZM16 13.3333V21.3333H21.3333V13.3333H16ZM2.66667 18.6667V21.3333H8V18.6667H2.66667Z" fill="white"/>
</svg>
