<svg width="24" height="24" viewBox="0 0 24 24" fill="none" xmlns="http://www.w3.org/2000/svg">
<path d="M10.11 0.451701C10.663 0.174421 11.2804 0.0202626 11.9116 0.00186555C12.5428 -0.0165315 13.1698 0.101357 13.7412 0.345864L13.9692 0.451701L22.0992 4.81066L22.2144 4.8794L22.3248 4.96342L22.4532 5.04525C22.8704 5.32942 23.2201 5.68742 23.4812 6.0977C23.7423 6.50798 23.9094 6.96205 23.9724 7.43259L23.994 7.65299L24 7.87558V15.8232C24 17.0299 23.316 18.1461 22.2552 18.7615L22.0512 18.8706L13.8876 23.5646C12.786 24.1145 11.4648 24.1483 10.2828 23.6388L10.0476 23.5297L2.0136 18.9066C1.44214 18.622 0.958822 18.2109 0.60834 17.7114C0.257858 17.212 0.0515199 16.6402 0.00839996 16.049L0 15.8232V7.87449C0 6.66772 0.684 5.55262 1.7712 4.92305L10.11 0.451701ZM12 15.2754C11.7061 15.2755 11.4224 15.3736 11.2028 15.5512C10.9831 15.7288 10.8428 15.9735 10.8084 16.2389L10.8 16.3666L10.8084 16.5051C10.8431 16.7703 10.9835 17.0147 11.2032 17.1921C11.4228 17.3694 11.7063 17.4674 12 17.4674C12.2937 17.4674 12.5772 17.3694 12.7968 17.1921C13.0165 17.0147 13.1569 16.7703 13.1916 16.5051L13.2 16.3775L13.1916 16.2389C13.1572 15.9735 13.0169 15.7288 12.7972 15.5512C12.5776 15.3736 12.2939 15.2755 12 15.2754ZM13.6416 7.99451C12.9233 7.66059 12.1019 7.55735 11.3108 7.70156C10.5198 7.84576 9.80565 8.22894 9.2844 8.78883C9.08566 9.00051 8.9834 9.27324 8.99853 9.55122C9.01367 9.8292 9.14507 10.0914 9.36584 10.2842C9.58661 10.477 9.88006 10.5858 10.1861 10.5883C10.4922 10.5908 10.7878 10.4869 11.0124 10.2978L11.2176 10.1014C11.3946 9.95368 11.6172 9.85878 11.8554 9.82952C12.0935 9.80026 12.3358 9.83803 12.5496 9.93777C12.7801 10.0438 12.9668 10.2147 13.0819 10.425C13.1971 10.6353 13.2345 10.8737 13.1887 11.1049C13.1429 11.336 13.0162 11.5476 12.8276 11.7081C12.6389 11.8685 12.3983 11.9694 12.1416 11.9956L11.8632 12.0087C11.558 12.0392 11.2773 12.175 11.0788 12.388C10.8803 12.601 10.7792 12.8751 10.7963 13.1539C10.8134 13.4326 10.9473 13.6948 11.1705 13.8865C11.3938 14.0782 11.6893 14.1848 11.9964 14.1843C12.806 14.1866 13.5927 13.9406 14.2296 13.4862C14.8665 13.0318 15.3163 12.3955 15.5065 11.68C15.6967 10.9645 15.616 10.2116 15.2777 9.54288C14.9393 8.87418 14.3629 8.32869 13.6416 7.99451Z" fill="#FDC700"/>
</svg>
