<svg width="32" height="16" viewBox="0 0 32 16" fill="none" xmlns="http://www.w3.org/2000/svg">
<path d="M30.9395 15.4477V14.3228H32.0001V15.4477H30.9395Z" fill="#155DFC"/>
<path d="M29.0716 15.512C28.4145 15.512 27.9038 15.3334 27.5396 14.9763C27.1824 14.6121 27.0039 14.1014 27.0039 13.4443V10.8731H25.9968V9.6196H26.104C26.3897 9.6196 26.6111 9.54461 26.7682 9.39462C26.9253 9.24463 27.0039 9.02679 27.0039 8.7411V8.29114H28.4073V9.6196H29.7465V10.8731H28.4073V13.3693C28.4073 13.5621 28.4395 13.7264 28.5038 13.8621C28.5752 13.9978 28.6823 14.1014 28.8252 14.1728C28.9752 14.2442 29.1644 14.2799 29.393 14.2799C29.443 14.2799 29.5001 14.2764 29.5644 14.2692C29.6358 14.2621 29.7037 14.2549 29.7679 14.2478V15.4477C29.668 15.462 29.5537 15.4763 29.4251 15.4906C29.2966 15.5048 29.1787 15.512 29.0716 15.512Z" fill="#155DFC"/>
<path d="M20.2996 15.4477V9.61965H21.6173V10.766L21.5102 10.5624C21.6459 10.2125 21.8673 9.94819 22.1744 9.76964C22.4887 9.58394 22.8529 9.49109 23.2672 9.49109C23.6957 9.49109 24.0743 9.58394 24.4028 9.76964C24.7385 9.95534 24.9992 10.216 25.1849 10.5517C25.3706 10.8803 25.4634 11.2624 25.4634 11.6981V15.4477H24.06V12.0302C24.06 11.773 24.01 11.5516 23.91 11.3659C23.81 11.1802 23.6707 11.0374 23.4922 10.9374C23.3207 10.8303 23.1172 10.7767 22.8815 10.7767C22.6529 10.7767 22.4494 10.8303 22.2708 10.9374C22.0923 11.0374 21.953 11.1802 21.853 11.3659C21.753 11.5516 21.703 11.773 21.703 12.0302V15.4477H20.2996Z" fill="#155DFC"/>
<path d="M16.7395 15.5763C16.1396 15.5763 15.6146 15.4406 15.1646 15.1692C14.7147 14.8978 14.3647 14.53 14.1147 14.0657C13.8647 13.6015 13.7397 13.0872 13.7397 12.523C13.7397 11.9373 13.8647 11.4195 14.1147 10.9695C14.3718 10.5124 14.7182 10.1517 15.1539 9.88749C15.5967 9.62322 16.0896 9.49109 16.6324 9.49109C17.0895 9.49109 17.4894 9.56608 17.8323 9.71607C18.1822 9.86606 18.4786 10.0732 18.7215 10.3374C18.9643 10.6017 19.15 10.9053 19.2786 11.2481C19.4071 11.5838 19.4714 11.948 19.4714 12.3409C19.4714 12.4408 19.4643 12.5444 19.45 12.6515C19.4429 12.7587 19.425 12.8515 19.3964 12.9301H14.8968V11.8588H18.6036L17.9394 12.3623C18.0037 12.0337 17.9858 11.7409 17.8858 11.4838C17.793 11.2267 17.6359 11.0231 17.4144 10.8731C17.2002 10.7231 16.9395 10.6481 16.6324 10.6481C16.3395 10.6481 16.0788 10.7231 15.8503 10.8731C15.6217 11.016 15.4468 11.2302 15.3253 11.5159C15.2111 11.7945 15.1682 12.1337 15.1968 12.5337C15.1682 12.8908 15.2146 13.2086 15.336 13.4872C15.4646 13.7586 15.6503 13.9693 15.8931 14.1193C16.1431 14.2693 16.4288 14.3443 16.7502 14.3443C17.0716 14.3443 17.343 14.2764 17.5644 14.1407C17.793 14.005 17.9715 13.8229 18.1001 13.5943L19.2357 14.1514C19.1215 14.43 18.9429 14.6764 18.7001 14.8906C18.4572 15.1049 18.168 15.2728 17.8323 15.3942C17.5037 15.5156 17.1395 15.5763 16.7395 15.5763Z" fill="#155DFC"/>
<path d="M10.1904 15.2666C9.4419 15.5048 8.64486 15.6348 7.81738 15.6348C6.87694 15.6348 5.97577 15.4675 5.14062 15.1631V10.4756H7.52734L10.1904 15.2666ZM7.81738 0C12.1348 0 15.6347 3.49996 15.6348 7.81738C15.6348 10.4158 14.3657 12.7162 12.415 14.1377L10.0791 10.0254C10.8494 9.70021 11.458 9.19979 11.9053 8.52441C12.3649 7.84913 12.5947 7.03024 12.5947 6.06738C12.5947 5.12951 12.3903 4.33488 11.9805 3.68457C11.5705 3.02174 10.9986 2.52128 10.2656 2.18359C9.5451 1.83344 8.71266 1.65825 7.76855 1.6582H3.00684C4.33357 0.620502 6.00247 1.44083e-05 7.81738 0ZM2.60547 13.6416C1.00705 12.2102 0 10.1319 0 7.81738C1.83759e-05 5.50262 1.00675 3.42357 2.60547 1.99219V13.6416ZM7.80566 3.90918C8.26513 3.90921 8.66271 4.00297 8.99805 4.19043C9.33351 4.36553 9.59488 4.61622 9.78125 4.94141C9.96754 5.25404 10.0605 5.62973 10.0605 6.06738C10.0605 6.49232 9.96744 6.86737 9.78125 7.19238C9.59488 7.51757 9.33351 7.77431 8.99805 7.96191C8.66267 8.13693 8.2652 8.22458 7.80566 8.22461H5.14062V3.90918H7.80566Z" fill="#155DFC"/>
</svg>
