<svg width="22" height="22" viewBox="0 0 22 22" fill="none" xmlns="http://www.w3.org/2000/svg">
<path d="M12.866 0.729964C12.3579 0.260638 11.6917 0 11 0C10.3083 0 9.64207 0.260638 9.134 0.729964L1.205 8.05396C0.82492 8.40518 0.521648 8.83126 0.314267 9.3054C0.106886 9.77953 -0.000113872 10.2915 9.09386e-08 10.809V19.246C9.09386e-08 19.9753 0.289732 20.6748 0.805457 21.1905C1.32118 21.7062 2.02065 21.996 2.75 21.996H19.25C19.9793 21.996 20.6788 21.7062 21.1945 21.1905C21.7103 20.6748 22 19.9753 22 19.246V10.809C22.0001 10.2915 21.8931 9.77953 21.6857 9.3054C21.4784 8.83126 21.1751 8.40518 20.795 8.05396L12.866 0.729964ZM18.754 20.496L18.652 20.479L18.184 20.399C17.6242 20.3001 17.0655 20.1951 16.508 20.084C14.7998 19.7479 13.1049 19.3473 11.427 18.883C9.574 18.362 7.767 17.737 6.436 17.035C5.769 16.682 5.26 16.33 4.928 15.991C4.596 15.652 4.5 15.388 4.5 15.196C4.5 14.945 4.583 14.768 4.744 14.61C4.926 14.43 5.231 14.256 5.69 14.106C6.615 13.803 7.9 13.675 9.31 13.579L10.067 13.529C11.202 13.457 12.365 13.383 13.313 13.214C13.896 13.109 14.461 12.959 14.921 12.716C15.387 12.471 15.827 12.082 15.978 11.478C16.136 10.843 15.926 10.277 15.601 9.82796C15.286 9.39396 14.827 9.01096 14.343 8.67096C13.716 8.23096 12.918 7.77796 12.138 7.33596C11.738 7.10796 11.341 6.88396 10.976 6.66496C9.817 5.97096 8.946 5.32696 8.569 4.69296C8.399 4.40696 8.352 4.15796 8.399 3.90996C8.448 3.64496 8.622 3.28496 9.08 2.82596L9.114 2.79096L10.152 1.83096C10.3829 1.61774 10.6857 1.49933 11 1.49933C11.3143 1.49933 11.6171 1.61774 11.848 1.83096L19.777 9.15596C20.005 9.36669 20.187 9.62234 20.3114 9.90682C20.4359 10.1913 20.5001 10.4985 20.5 10.809V19.246C20.5 19.936 19.94 20.496 19.25 20.496H18.754ZM6.977 4.76496C7.04833 5.00896 7.14933 5.2403 7.28 5.45896C7.876 6.46196 9.076 7.27496 10.205 7.95196C10.645 8.21496 11.08 8.46196 11.496 8.69696C12.228 9.11196 12.908 9.49696 13.48 9.89796C13.919 10.207 14.218 10.476 14.386 10.708C14.544 10.926 14.541 11.041 14.522 11.114C14.512 11.155 14.472 11.257 14.22 11.39C13.964 11.5266 13.5737 11.6423 13.049 11.737C12.193 11.89 11.142 11.957 10.011 12.03C9.74633 12.046 9.47833 12.0633 9.207 12.082C7.822 12.177 6.353 12.31 5.222 12.681C4.653 12.867 4.105 13.134 3.692 13.541C3.4698 13.755 3.29378 14.0122 3.17476 14.2969C3.05575 14.5815 2.99628 14.8875 3 15.196C3 15.926 3.372 16.545 3.856 17.04C4.341 17.536 5.001 17.973 5.736 18.361C7.207 19.138 9.136 19.796 11.02 20.327C11.2253 20.3843 11.4303 20.4406 11.635 20.496H2.75C2.06 20.496 1.5 19.936 1.5 19.246V10.809C1.5 10.181 1.762 9.58196 2.223 9.15596L6.977 4.76496Z" fill="black"/>
</svg>
