<svg width="22" height="22" viewBox="0 0 22 22" fill="none" xmlns="http://www.w3.org/2000/svg">
<path d="M11 21C6.286 21 3.929 21 2.464 19.535C1 18.072 1 15.714 1 11C1 6.286 1 3.929 2.464 2.464C3.93 1 6.286 1 11 1C15.714 1 18.071 1 19.535 2.464C21 3.93 21 6.286 21 11C21 15.714 21 18.071 19.535 19.535C18.072 21 15.714 21 11 21Z" stroke="black" stroke-width="1.5"/>
<path d="M4.5 7.757C4.5 5.958 6.067 4.5 8 4.5C9.933 4.5 11.5 5.958 11.5 7.757C11.5 9.542 10.383 11.625 8.64 12.37C8.43754 12.4558 8.21989 12.5 8 12.5C7.78011 12.5 7.56246 12.4558 7.36 12.37C5.617 11.625 4.5 9.542 4.5 7.757Z" stroke="black" stroke-width="1.5"/>
<path d="M13 13L19.5 19.5M13 13L5.39502 20.605M13 13L20.607 5.39404" stroke="black" stroke-width="1.5" stroke-linecap="round"/>
<path d="M9 8C9 8.26522 8.89464 8.51957 8.70711 8.70711C8.51957 8.89464 8.26522 9 8 9C7.73478 9 7.48043 8.89464 7.29289 8.70711C7.10536 8.51957 7 8.26522 7 8C7 7.73478 7.10536 7.48043 7.29289 7.29289C7.48043 7.10536 7.73478 7 8 7C8.26522 7 8.51957 7.10536 8.70711 7.29289C8.89464 7.48043 9 7.73478 9 8Z" fill="black"/>
</svg>
